<svg width="973" height="1260" viewBox="0 0 973 1260" xmlns="http://www.w3.org/2000/svg"><title>spotlights</title><g fill="none" fill-rule="evenodd"><path fill="#A80323" d="M110 1314.965l430.43-327.533L485 719z"/><path fill="#CC0028" d="M109 1312.668l430.43-327.533 34.81-530.695z"/><path fill="#F2C800" d="M324.82 1336.958L-100.64 597-186 820.46z"/><path fill="#FDD100" d="M324.528 1331.909l-425.46-739.959-85.36 223.46z"/><path fill="#8BB867" d="M490.516 1414.588L-64 387.425-49.682 67z"/><path fill="#9ECE78" d="M484.395 1395.84L-70.121 368.676l14.318-320.425z"/><path fill="#520A3D" d="M465.795 1401.372L-103 716.88-71.767 533z"/><path fill="#6F1053" d="M468.395 1400.491L-100.4 716l31.233-183.88z"/><path fill="#3EA2AB" d="M240.76 1377.645l503.193-594.688-173.86-62.121z"/><path fill="#3EB6C2" d="M241.76 1372.81l503.194-594.69L717 437.833z"/><path fill="#237FB1" d="M417 1382l323.918-566.641 163.384 20.14z"/><path d="M417 1378l448.534-774.177 38.768 227.676L417 1378z" fill="#1E98DB"/></g></svg>