<svg width="1092" height="1367" viewBox="0 0 1092 1367" xmlns="http://www.w3.org/2000/svg"><title>Path 5 + Path 2 + Path 6 + Path 2 Copy + Path 3 + Path 4 Mask</title><g fill="none" fill-rule="evenodd"><path fill="#A80323" d="M297 1266.965l430.43-327.533L672 671z"/><path fill="#CC0028" d="M296 1264.668l430.43-327.533L671 668.703z"/><path fill="#F2C800" d="M511.82 1288.958L86.36 549 1 772.46z"/><path fill="#FDD100" d="M511.528 1283.909L86.068 543.95.709 767.41z"/><path fill="#8BB867" d="M677.516 1366.588L123 339.425 137.318 19z"/><path fill="#9ECE78" d="M671.395 1347.84L116.879 320.676 131.197.251z"/><path fill="#520A3D" d="M652.795 1353.372L84 668.88 115.233 485z"/><path fill="#6F1053" d="M655.395 1352.491L86.6 668l31.233-183.88z"/><path fill="#3EA2AB" d="M427.76 1329.645l503.193-594.688-173.86-62.121z"/><path fill="#3EB6C2" d="M428.76 1324.81l503.194-594.69L758.093 668z"/><path fill="#237FB1" d="M604 1334l323.918-566.641 163.384 20.14z"/><path fill="#1E98DB" d="M604 1330l323.918-566.641 163.384 20.14z"/></g></svg>