<svg width="392" height="101" viewBox="0 0 392 101" xmlns="http://www.w3.org/2000/svg"><title>Logo Lockup (updated)</title><g id="Symbols" fill="none" fill-rule="evenodd"><g id="Logo-Lockup"><g id="Arts&amp;Sciences-+-The-College-of" transform="translate(156 22)"><g id="Arts&amp;Sciences" transform="translate(.223 28.181)"><path d="M104.997 1.302c-2.998 0-5.36.825-6.822 2.066-1.499 1.242-2.698 3.197-2.698 5.677 0 2.443.9 3.948 2.025 5 1.123 1.089 2.435 1.578 3.073 1.88.862.375 2.812 1.053 3.935 1.465 1.124.414 3.037 1.091 3.037 2.857 0 1.73-1.499 2.67-3.448 2.67-1.987 0-4.874-1.316-6.747-3.271l-3 4.435c2.1 1.955 5.436 3.911 9.184 3.911 2.774 0 5.173-.677 7.01-2.143a7.862 7.862 0 0 0 3.035-6.203c0-2.331-.937-3.91-2.023-5-1.163-1.165-2.887-1.84-3.6-2.105-.824-.338-2.735-1.015-3.86-1.467-1.162-.45-2.624-1.051-2.624-2.63 0-1.58 1.425-2.33 3.374-2.33s4.273 1.126 5.772 2.63l2.586-4.247c-1.761-1.768-5.209-3.195-8.21-3.195" id="Fill-1" fill="#2C2C2C"/><path d="M131.382 25.735c-.187.151-2.136 2.22-7.046 2.22-5.061 0-9.746-3.46-9.746-9.624 0-6.204 4.76-9.662 9.82-9.662 4.723 0 6.859 1.955 6.859 1.955l-1.31 4.549a7.589 7.589 0 0 0-4.762-1.654c-2.548 0-4.573 1.767-4.573 4.7 0 2.931 1.837 4.773 4.649 4.773 2.81 0 4.685-1.804 4.685-1.804l1.424 4.547" id="Fill-2" fill="#2C2C2C"/><path d="M136.065 6.864c-2.024 0-3.411-1.24-3.411-3.12 0-1.841 1.387-3.12 3.411-3.12 2.023 0 3.41 1.279 3.41 3.12 0 1.88-1.387 3.12-3.41 3.12zm-2.999 2.142h5.997V27.54h-5.997V9.006z" id="Fill-3" fill="#2C2C2C"/><path d="M160.426 19.721h-13.157c.263 2.67 2.288 3.872 4.723 3.872 2.4 0 4.5-1.053 5.548-1.767l2.361 3.12c-.6.451-3.036 3.008-8.77 3.008-5.698 0-9.859-3.534-9.859-9.662 0-6.127 4.498-9.623 9.972-9.623 5.472 0 9.257 3.646 9.257 9.06 0 .902-.075 1.992-.075 1.992zm-5.51-3.421c-.036-1.692-1.273-3.721-3.785-3.721-2.474 0-3.75 1.955-3.823 3.72h7.608z" id="Fill-4" fill="#2C2C2C"/><path d="M174.667 27.54v-9.66c0-2.444-.375-4.286-2.85-4.286-2.586 0-3.298 2.105-3.298 4.774v9.173h-5.996V9.006h5.996l-.036 2.67h.075c1.01-1.653 2.698-3.007 5.36-3.007 5.358 0 6.746 3.458 6.746 7.931v10.94h-5.997z" id="Fill-5" fill="#2C2C2C"/><path d="M199.477 25.735c-.188.151-2.137 2.22-7.048 2.22-5.06 0-9.745-3.46-9.745-9.624 0-6.204 4.76-9.662 9.82-9.662 4.723 0 6.86 1.955 6.86 1.955l-1.312 4.549a7.585 7.585 0 0 0-4.761-1.654c-2.549 0-4.572 1.767-4.572 4.7 0 2.931 1.837 4.773 4.649 4.773 2.81 0 4.684-1.804 4.684-1.804l1.425 4.547" id="Fill-6" fill="#2C2C2C"/><path d="M219.153 19.721h-13.157c.262 2.67 2.288 3.872 4.724 3.872 2.398 0 4.499-1.053 5.547-1.767l2.362 3.12c-.6.451-3.037 3.008-8.771 3.008-5.698 0-9.858-3.534-9.858-9.662 0-6.127 4.497-9.623 9.97-9.623 5.473 0 9.258 3.646 9.258 9.06 0 .902-.075 1.992-.075 1.992zm-5.51-3.421c-.037-1.692-1.274-3.721-3.785-3.721-2.473 0-3.749 1.955-3.823 3.72h7.608z" id="Fill-7" fill="#2C2C2C"/><path d="M233.168 26.338c-1.349 1.052-3.186 1.616-5.66 1.616-2.774 0-5.697-.865-7.796-2.856l2.25-3.571c1.498 1.276 3.971 2.254 5.471 2.254 1.499 0 2.549-.375 2.549-1.579 0-1.203-2.698-1.805-3.374-2.029-.712-.189-1.761-.49-2.624-.864-.86-.376-3.148-1.542-3.148-4.85 0-3.608 3.148-5.829 7.009-5.829s6.034 1.43 7.085 2.295l-1.95 3.533c-1.05-.827-3.149-1.805-4.648-1.805-1.424 0-2.21.376-2.21 1.354 0 .977 1.424 1.429 2.697 1.805 1.276.376 1.838.565 2.625.864.824.302 1.761.79 2.398 1.391.6.602 1.5 1.804 1.5 3.759 0 1.918-.825 3.421-2.174 4.512" id="Fill-8" fill="#2C2C2C"/><path d="M9.83 16.645l3.224-9.323 3.223 9.323H9.83zM16.352.63h-6.297L.31 26.606h6.297l1.836-5.225h9.221l1.836 5.225h6.596L16.352.63z" id="Clip-22" fill="#2C2C2C"/><path d="M39.326 13.6h-.262c-.338-.19-1.124-.452-2.175-.452a3.52 3.52 0 0 0-2.773 1.353c-.45.601-.937 1.805-.937 3.873v8.232H27.18V8.073h5.998l-.038 2.632h.076c1.048-2.03 2.586-2.97 4.571-2.97 1.237 0 1.875.338 1.875.338l-.337 5.526" id="Fill-24" fill="#2C2C2C"/><path d="M51.954 12.66H47.87v6.653c0 1.578.224 1.955.524 2.293.262.302.637.452 1.425.452.936 0 1.798-.339 1.798-.339l.3 4.698c-.45.114-2.098.603-4.273.603-2.136 0-3.561-.639-4.498-1.73-.938-1.09-1.312-2.63-1.312-5.45v-7.18H39.21V8.11h2.624V3.073h6.036v5.038h4.084v4.549" id="Fill-25" fill="#2C2C2C"/><path d="M65.52 25.404c-1.348 1.052-3.186 1.616-5.659 1.616-2.774 0-5.698-.865-7.796-2.857l2.25-3.57c1.499 1.276 3.972 2.253 5.47 2.253 1.5 0 2.55-.375 2.55-1.578 0-1.202-2.698-1.804-3.373-2.03-.713-.188-1.762-.489-2.624-.864-.862-.376-3.15-1.542-3.15-4.85 0-3.608 3.15-5.827 7.01-5.827s6.034 1.428 7.086 2.293l-1.95 3.534c-1.05-.828-3.149-1.805-4.648-1.805-1.424 0-2.21.377-2.21 1.354 0 .977 1.423 1.428 2.697 1.804 1.274.376 1.837.565 2.624.865.825.301 1.762.79 2.4 1.392.599.601 1.498 1.803 1.498 3.757 0 1.919-.825 3.422-2.175 4.513" id="Fill-26" fill="#2C2C2C"/><path d="M88.336 26.606l-2.55-2.782c-2.622 2.143-4.908 3.234-8.28 3.234-4.8 0-9.071-2.482-9.071-7.632 0-3.72 2.884-6.015 6.22-7.443-1.236-1.391-2.66-3.082-2.66-5.602C71.995 2.21 75.78.18 79.941.18c4.122 0 7.645 2.03 7.645 6.053 0 3.006-2.36 5.3-4.872 6.653l3.411 3.873c.643-.504 1.112-1.068 1.862-2.37h5.672c-.863 1.393-2.923 4.399-4.31 5.789l5.884 6.129v.3h-6.897zM77.767 15.102l-.75.414c-1.199.677-2.737 1.73-2.737 3.723 0 2.029 1.687 3.344 3.636 3.344 1.912 0 3.674-1.089 4.649-2.18l-4.798-5.3zm2.287-10.9c-1.5 0-2.513.864-2.513 2.293 0 1.127.826 1.954 1.237 2.444l.863.938c1.124-.713 2.848-1.804 2.848-3.458 0-1.428-.974-2.218-2.435-2.218z" id="Fill-27" fill="#E44444"/></g><g id="The-College-of" transform="translate(.223 .496)" fill="#767676"><path id="Fill-9" d="M11.591 1.718H6.563V17.49H5.238V1.718H.21V.513H11.59v1.205"/><path d="M22.285 17.49h-1.3v-6.767c0-1.844-.32-3.74-2.772-3.74-2.454 0-3.632 2.141-3.632 4.847v5.66h-1.274V.513h1.274v7.676c.566-1.354 2.036-2.313 3.68-2.313 3.264 0 4.024 2.091 4.024 4.797v6.817" id="Fill-10"/><path d="M35.21 12.075H25.96c.122 2.708 1.643 4.503 4.22 4.503 2.576 0 4-1.475 4-1.475l.612.91s-1.422 1.722-4.735 1.722c-3.311 0-5.446-2.461-5.446-5.954 0-3.518 2.502-5.905 5.519-5.905 2.993 0 5.153 2.263 5.153 5.339 0 .37-.074.86-.074.86zm-1.227-1.105c0-1.477-1.104-3.988-3.925-3.988-2.821 0-3.975 2.387-4.047 3.988h7.972z" id="Fill-11"/><path d="M55.886 15.152c-1.226 1.353-3.19 2.632-6.256 2.632-4.906 0-8.537-3.59-8.537-8.758 0-5.169 3.753-8.76 8.537-8.76 2.943 0 4.907 1.23 6.133 2.46l-.859.984c-.858-1.107-2.821-2.24-5.274-2.24-4.17 0-7.115 3.076-7.115 7.506 0 4.429 2.945 7.553 7.115 7.553 2.331 0 4.171-.884 5.397-2.238l.86.86" id="Fill-12"/><path d="M62.922 17.735c-3.239 0-5.816-2.461-5.816-5.905 0-3.445 2.577-5.954 5.816-5.954 3.262 0 5.838 2.51 5.838 5.954s-2.576 5.905-5.838 5.905zm0-10.753c-2.748 0-4.465 2.142-4.465 4.799 0 2.633 1.717 4.797 4.465 4.797 2.77 0 4.489-2.164 4.489-4.797 0-2.657-1.718-4.799-4.489-4.799z" id="Fill-13"/><path id="Fill-14" d="M71.21.513h1.274V17.49H71.21z"/><path id="Fill-15" d="M75.92.513h1.275V17.49h-1.276z"/><path d="M90.244 12.075h-9.25c.124 2.708 1.645 4.503 4.219 4.503 2.577 0 4-1.475 4-1.475l.613.91s-1.422 1.722-4.735 1.722c-3.312 0-5.446-2.461-5.446-5.954 0-3.518 2.502-5.905 5.52-5.905 2.994 0 5.153 2.263 5.153 5.339 0 .37-.074.86-.074.86zm-1.226-1.105c0-1.477-1.106-3.988-3.927-3.988-2.82 0-3.973 2.387-4.047 3.988h7.974z" id="Fill-16"/><path d="M102.825 15.03c0 2.581-.32 3.935-.932 4.92-.614.984-1.962 2.461-4.908 2.461-2.942 0-4.782-1.723-4.782-1.723l.735-.984c.614.614 2.332 1.55 4.172 1.55 1.84 0 2.943-.813 3.435-1.476.49-.69.98-1.92.98-3.888v-.836c-.834 1.475-2.256 2.436-4.293 2.436-2.994 0-5.568-2.24-5.568-5.808 0-3.567 2.574-5.806 5.568-5.806 2.037 0 3.533 1.009 4.294 2.36V6.072h1.299v8.958zm-5.52-8.023c-2.82 0-4.293 2.067-4.293 4.651 0 2.584 1.473 4.675 4.294 4.675 2.82 0 4.292-2.091 4.292-4.675 0-2.584-1.472-4.651-4.292-4.651z" id="Fill-17"/><path d="M115.75 12.075h-9.25c.124 2.708 1.645 4.503 4.22 4.503 2.578 0 3.999-1.475 3.999-1.475l.614.91s-1.423 1.722-4.734 1.722c-3.313 0-5.448-2.461-5.448-5.954 0-3.518 2.502-5.905 5.52-5.905 2.994 0 5.153 2.263 5.153 5.339 0 .37-.074.86-.074.86zm-1.226-1.105c0-1.477-1.105-3.988-3.925-3.988-2.821 0-3.975 2.387-4.048 3.988h7.973z" id="Fill-18"/><path d="M127.4 17.735c-3.24 0-5.817-2.461-5.817-5.905 0-3.445 2.577-5.954 5.816-5.954 3.263 0 5.837 2.51 5.837 5.954s-2.574 5.905-5.837 5.905zm0-10.753c-2.75 0-4.466 2.142-4.466 4.799 0 2.633 1.716 4.797 4.465 4.797 2.77 0 4.489-2.164 4.489-4.797 0-2.657-1.718-4.799-4.489-4.799z" id="Fill-19"/><path d="M140.47 1.618s-.615-.245-1.227-.245c-1.84 0-2.035 1.476-2.035 3.075v1.674h2.894v1.157h-2.894V17.49h-1.278V7.28h-1.715V6.122h1.715v-1.55c0-1.6.297-2.461.664-3.003.368-.566 1.176-1.304 2.402-1.304 1.228 0 1.598.248 1.598.248l-.125 1.105" id="Fill-20"/></g></g><path d="M129.5.5v100" id="Line-2" stroke="#E3E3E3" stroke-linecap="square"/><g id="Insignia-2" transform="translate(0 1)" fill="#2C2C2C"><path d="M38.424 76.185c5.666 4.454 11.248 6.81 11.484 6.906l.432.182.435-.185c.233-.103 5.795-2.489 11.444-6.897 7.604-5.933 11.627-12.687 11.627-19.54l-.005-31.324-47.057.005-.004 30.777c0 7.137 4.026 14.075 11.644 20.076zm10.845-9.603a2.504 2.504 0 0 0-.844-.145h-.054c-1.144 0-2.001.079-2.91.159a40.018 40.018 0 0 1-4.803.197v-14.73h.194c.566.005 1.261 0 2.135-.016.737-.02 1.55-.108 2.489-.206a82.285 82.285 0 0 1 1.682-.17c.976-.104 1.88.07 1.88.07l.23.075v14.766zm22.347-9.93c0 12.824-15.792 21.515-20.442 23.793V68.78l.235-.243c.232-.269.379-.429.823-.432a34.6 34.6 0 0 1 2.806.152c.882.079 1.88.173 3.298.202a31.488 31.488 0 0 0 2.536-.03l.79-.043v-4.357h1.852v-2.323h-1.851v-4.22h1.851v-2.322H61.66v-4.74l-.814-.018c-.3-.01-.643-.01-1.049-.006-.567-.008-1.24 0-2.095-.022-.668-.014-1.448-.095-2.351-.192a75.211 75.211 0 0 0-1.676-.168 8.167 8.167 0 0 0-2.445.1l-.056.016v-4.476h20.44l.002 10.995zM51.174 66.656V51.889c.11-.051.238-.103.413-.142a6.714 6.714 0 0 1 1.921-.072c.597.052 1.15.109 1.669.169.937.095 1.748.183 2.485.203.743.017 1.36.017 1.88.017h.446l.003 14.729c-.423.007-.986.018-1.614 0a40.872 40.872 0 0 1-3.188-.196c-.919-.084-1.744-.163-2.962-.16-.43 0-.766.093-1.053.219zm-22.166-39.1l42.605-.007.002 15.884H29.007l.001-15.878zm-.001 18.101h20.262v4.433a8.344 8.344 0 0 0-2.278-.076c-.604.054-1.164.114-1.688.171-.906.097-1.687.178-2.356.192-.854.022-1.535.022-2.095.022-.404 0-.75 0-1.051.006l-.816.018v4.28h-2.003v2.327h2.003v4.279h-2.003v2.318h2.003v4.758l.79.044c.044.004 1.131.06 2.537.029 1.419-.03 2.416-.123 3.298-.202.908-.08 1.693-.152 2.761-.152.421-.006.56.126.788.41l.11.125v11.705c-4.914-2.41-20.262-11-20.262-24.235V45.657z" id="Fill-28"/><path d="M46.796 29.145h-11.89v.83c-.004 2.59-.005 6.97.01 7.17.057.897.65 1.709 1.818 2.482 1.435.961 3.575 2.211 3.665 2.265l.408.238.412-.226c.097-.05 2.407-1.308 3.848-2.277 1.687-1.119 1.716-2.143 1.729-2.483.012-.183.007-4 0-7.169v-.83zM36.58 30.808h8.549l.001 2.159h-8.553c0-.721 0-1.465.003-2.159zm8.546 6.289c-.012.415-.544.853-.988 1.147-1.024.687-2.57 1.563-3.303 1.97-.697-.415-2.143-1.283-3.168-1.97-.67-.445-1.066-.883-1.087-1.209-.003-.121-.003-1.11-.003-2.401h8.553c0 1.3-.001 2.306-.004 2.463z" id="Fill-29"/><path d="M67.03 28.791H54.873v.832c-.002 3.255-.002 7.168.01 7.37.068.905.674 1.733 1.863 2.52 1.466.986 3.66 2.268 3.751 2.322l.407.238.415-.227c.097-.05 2.47-1.336 3.951-2.332 1.729-1.149 1.755-2.193 1.76-2.537.013-.186.009-4.102.001-7.355l-.001-.83zM65.36 36.94c-.01.43-.56.882-1.019 1.196-1.059.703-2.66 1.605-3.408 2.02a88.128 88.128 0 0 1-3.258-2.02c-.326-.22-1.09-.781-1.123-1.268-.003-.045-.003-.202-.006-.439l4.214-3.031 4.604 3.06c0 .254-.002.425-.004.482zm-4.637-5.575l-4.18 3.012a829.94 829.94 0 0 1 0-3.92h8.817c.004 1.303.007 2.78.007 4.001l-4.644-3.093z" id="Fill-30"/><path d="M53.345 55.186l.794.082c.54.061 1.007.106 1.414.118l2.46.07.037-1.67-2.454-.07c-.37-.004-.786-.052-1.278-.102l-.811-.083a4.264 4.264 0 0 0-.618-.019l.072 1.662c.117-.005.244 0 .384.012" id="Fill-31"/><path d="M55.607 58.335c-.349-.01-.751-.054-1.21-.101a25.046 25.046 0 0 0-.869-.088c-.214-.023-.417-.026-.602-.023l.027 1.667c.12-.004.252 0 .407.015.309.028.594.058.86.084.511.056.958.1 1.348.113.512.006 1.261.03 1.816.041l.645.019.035-1.664-.638-.018c-.557-.014-1.307-.037-1.82-.045" id="Fill-32"/><path d="M55.596 63.094c-.36-.013-.766-.056-1.232-.11-.274-.027-.56-.057-.846-.084-.222-.023-.427-.03-.617-.023l.052 1.662c.113 0 .242 0 .395.018.293.028.574.06.833.083.522.062.974.103 1.372.116l.694.018 1.77.045.029-1.67c-.276-.006-1.056-.022-1.755-.042l-.695-.013" id="Fill-33"/><path d="M45.044 55.366c.406-.009.873-.058 1.412-.12.253-.024.518-.052.8-.083l.38-.012.026-1.67a6.1 6.1 0 0 0-.56.026c-.296.027-.569.059-.824.087-.485.05-.9.1-1.272.106l-2.455.06.039 1.67 2.454-.064" id="Fill-34"/><path d="M46.291 58.2c-.484.054-.905.101-1.272.109l-2.457.066.04 1.668 2.456-.064c.41-.011.874-.062 1.415-.12l.784-.082.365-.01.076-1.666c-.173-.009-.374 0-.583.019l-.824.08" id="Fill-35"/><path d="M46.28 62.957c-.485.05-.904.101-1.355.107-.775.022-2.008.059-2.37.068l.03 1.665c.364-.01 1.603-.043 2.462-.063.406-.01.871-.063 1.416-.123l.809-.078.36-.014.029-1.667c-.178-.003-.374 0-.559.019l-.823.086" id="Fill-36"/><path d="M7.928 50.073c2.092 0 3.372-1.333 3.526-3.649a6.709 6.709 0 0 0-.124-1.577l-.04-.205-1.725-.015.164.355c.123.272.195.855.168 1.342-.079 1.206-.989 1.94-2.268 1.853-1.302-.081-2.13-.922-2.057-2.099.023-.38.091-.802.407-1.274l.214-.332-1.7-.25-.08.17a4.582 4.582 0 0 0-.395 1.562c-.148 2.42 1.193 3.959 3.59 4.108l.32.01" id="Fill-37"/><path d="M8.202 41.895c.463.13.913.197 1.339.197 1.588 0 2.76-.924 3.219-2.535.274-.963.197-1.873-.225-2.626-.461-.834-1.3-1.429-2.418-1.744a4.697 4.697 0 0 0-1.289-.189c-1.597 0-2.773.92-3.228 2.53-.594 2.07.405 3.74 2.602 4.367zM7.098 37.95c.252-.9 1.018-1.087 1.615-1.087.283 0 .59.048.89.13.73.21 1.302.59 1.558 1.05.18.322.214.685.103 1.09-.259.9-1.013 1.086-1.599 1.086-.297 0-.616-.046-.95-.141-.95-.27-1.943-.987-1.617-2.128z" id="Fill-38"/><path d="M15.4 32.544l-2.461-1.313.078-.15c.233-.439.41-.402.791-.354l2.4.303.949-1.784-3.192-.332a2.112 2.112 0 0 0-.623.036 1.785 1.785 0 0 0-.97-1.66c-.362-.19-.712-.287-1.034-.287-1.164 0-1.785 1.172-2.332 2.208l-.835 1.564 6.37 3.385.858-1.616zm-3.75-2.201l-.093.163-1.155-.617.088-.161c.29-.535.602-.981 1.096-.721.175.096.276.204.323.342.09.291-.108.706-.26.994z" id="Fill-39"/><path id="Fill-40" d="M19.378 26.287l-3.271-2.71 4.644 1.055 1.293-1.552-5.556-4.599-1.129 1.367 3.273 2.707-4.637-1.071-1.302 1.568 5.555 4.59 1.13-1.355"/><path id="Fill-41" d="M27.406 18.506l-.983-1.207-2.012 1.634-.876-1.073 1.838-1.487-.993-1.205-1.83 1.488-.726-.895 2-1.622-.986-1.207-3.416 2.777 4.552 5.583 3.432-2.786"/><path id="Fill-42" d="M33.4 14.94l-.773-1.362-2.234 1.255-2.775-4.912-1.598.9 3.537 6.266L33.4 14.94"/><path id="Fill-43" d="M39.457 12.623l-.535-1.459-2.412.87-1.927-5.3-1.723.622 2.454 6.762 4.143-1.495"/><path d="M46.722 11.433c.143 0 .291-.007.44-.023.998-.084 1.733-.395 2.188-.927.426-.509.605-1.211.53-2.088l-.374-4.515-1.824.147.34 4.107c.121 1.45-.46 1.684-.981 1.733l-.136.004c-.427 0-1.011-.161-1.127-1.551l-.336-4.105-1.826.15.377 4.516c.137 1.668 1.077 2.552 2.729 2.552" id="Fill-44"/><path id="Fill-45" d="M54.982 7.138l1.557 4.494 2.01.27.97-7.132-1.757-.237-.569 4.208-1.557-4.494-2.014-.272-.965 7.134 1.756.238.57-4.21"/><path id="Fill-46" d="M64.936 6.309l-1.745-.55-2.162 6.874 1.745.542 2.162-6.866"/><path id="Fill-47" d="M73.978 10.353l-1.646-.826-3.482 3.531.773-4.893-1.745-.887-1.072 7.529 1.776.891 5.396-5.345"/><path id="Fill-48" d="M75.785 20.641l.962-1.219-2.05-1.599.854-1.093 1.86 1.454.958-1.225-1.86-1.454.71-.906 2.032 1.584.964-1.221-3.472-2.71-4.444 5.668 3.486 2.721"/><path d="M78.773 23.66l2.095-1.833.115.135c.27.306.277.435.055.864l-1.133 2.13 1.337 1.517 1.443-2.87a2 2 0 0 0 .188-.583c.616.269 1.36.147 1.898-.32 1.554-1.362.311-2.777-.595-3.807l-1.188-1.348-5.427 4.747 1.212 1.369zm4.246-3.715l.127.14c.256.298.524.632.5.908l-.212.366-.4.179c-.31 0-.628-.317-.872-.592l-.122-.14.98-.861z" id="Fill-49"/><path d="M85.497 29.419c-.353.207-.797-.146-1-.485-.224-.381-.354-.86-.37-1.377l-.013-.375-1.653.76.117.368c.164.555.265.892.615 1.484.588.988 1.368 1.536 2.197 1.536.384 0 .773-.114 1.158-.35 1.28-.75 1.08-1.946.935-2.82-.104-.619-.15-1.001.106-1.154l.362-.109c.33 0 .55.314.632.446.209.354.347.775.404 1.207l.044.334 1.501-.678-.04-.197c-.105-.51-.311-1.018-.629-1.558-.786-1.317-2.078-1.745-3.28-1.033-1.236.727-1.057 1.897-.923 2.748.108.676.153 1.068-.163 1.253" id="Fill-50"/><path id="Fill-51" d="M86.325 35.934l6.68-2.721-.69-1.687-6.68 2.719.69 1.69"/><path id="Fill-52" d="M93.031 38.297l-5.493 1.347.436 1.776 5.494-1.353.455 1.843 1.512-.372-1.344-5.448-1.52.367.46 1.84"/><path id="Fill-53" d="M88.804 47.018l.103 1.823 2.834-.158 4.511 2.308-.105-1.98-2.635-1.303 2.473-1.548-.117-2.139-4.23 2.84-2.834.157"/><path id="Fill-54" d="M9.334 63.492l1.497-.434-.628-2.17 1.106-.319.663 2.283 1.495-.433-1.168-4.044-6.94 1.993.518 1.763 2.828-.816.629 2.177"/><path d="M15.763 69.457c.28-.83.193-1.753-.265-2.672-.638-1.298-1.698-2.011-2.966-2.011-.614 0-1.257.163-1.91.483-1.057.516-1.774 1.256-2.071 2.138-.284.823-.19 1.745.268 2.666.635 1.286 1.697 1.996 2.996 1.996.62 0 1.267-.163 1.914-.478 1.027-.506 1.729-1.238 2.034-2.122zm-2.87.417c-.462.227-.913.344-1.316.344-.629 0-1.082-.286-1.361-.844-.187-.383-.224-.753-.1-1.108.17-.496.66-.97 1.344-1.306.426-.207.865-.321 1.264-.321.64 0 1.106.281 1.374.835.187.378.216.75.092 1.11-.17.503-.646.976-1.298 1.29z" id="Fill-55"/><path d="M20.734 75.032l-3.23 2.564c-.871.694-1.494.757-1.997.126-.205-.258-.291-.507-.259-.758.043-.356.327-.74.845-1.153l3.227-2.558-1.149-1.437-3.555 2.813c-.739.587-1.135 1.242-1.163 1.957-.035.66.25 1.373.84 2.105.7.881 1.45 1.325 2.24 1.325.585 0 1.187-.243 1.792-.724l3.559-2.821-1.15-1.44" id="Fill-56"/><path id="Fill-57" d="M26.873 80.888l-2.698 3.284 1.028-4.65-1.595-1.295-4.575 5.567 1.388 1.12 2.698-3.288-1.015 4.67 1.574 1.288 4.575-5.569-1.38-1.127"/><path d="M32.203 84.292l-1.86-.93-3.246 6.431 1.859.929c.896.449 1.676.664 2.393.664 1.247 0 2.228-.681 2.909-2.034 1.076-2.133.387-3.835-2.055-5.06zm.353 4.203c-.372.75-1.018 1.169-1.772 1.169a2.01 2.01 0 0 1-.89-.212l-.445-.22 1.843-3.658.442.225c.464.232.822.638.982 1.117.162.502.108 1.049-.16 1.58z" id="Fill-58"/><path id="Fill-59" d="M36.185 93.787l4.319 1.147.399-1.497-2.538-.68.353-1.333 2.308.615.406-1.499-2.308-.618.294-1.111 2.518.667.407-1.5-4.303-1.146-1.855 6.955"/><path d="M46.83 88.538l-2.085-.12-.4 7.187 2.073.12c.16.009.314.01.475.01 2.417 0 3.71-1.134 3.839-3.371.06-1.112-.193-1.991-.759-2.625-.654-.724-1.683-1.12-3.144-1.2zm-.064 5.646l-.496-.025.237-4.078.487.024c.972.05 1.917.812 1.843 2.146-.082 1.386-1.132 1.987-2.07 1.933z" id="Fill-60"/><path d="M57.085 87.993l-1.225 7.62 1.887-.407.25-1.614 2.317-.506.882 1.389 1.98-.43-4.275-6.438-1.816.386zm1.137 3.957l.23-1.879.986 1.618-1.216.261z" id="Fill-61"/><path id="Fill-62" d="M63.945 91.712l.624 1.73 1.738-.625-.634-1.733-1.728.628"/><path d="M67.46 84.43l-1.835.986 3.446 6.33 1.825-.99c2.4-1.295 3.04-3.017 1.9-5.116-1.13-2.084-2.942-2.512-5.336-1.21zm2.923 4.836l-.433.236-1.954-3.588.438-.238c.288-.159.617-.245.944-.245.729 0 1.367.412 1.75 1.107.635 1.178.108 2.266-.745 2.728z" id="Fill-63"/><path id="Fill-64" d="M74.171 86.697l1.06 1.514 1.515-1.052-1.053-1.514-1.522 1.052"/><path id="Fill-65" d="M77.053 77.484l-.321 2.826 1.585.217.132-1.181 3.443 3.487 1.315-1.295-5.067-5.125-1.087 1.071"/><path d="M86.83 73.716c-.598-.441-1.275-.514-2.022-.225a2.034 2.034 0 0 0-.797-1.64c-.9-.658-2.1-.288-2.98.898-.872 1.174-.793 2.363.209 3.107.501.367 1.15.452 1.776.23-.046.786.207 1.372.768 1.781.402.3.825.449 1.255.449.726 0 1.45-.441 2.05-1.244.503-.686.727-1.373.63-1.99-.078-.534-.377-.988-.889-1.366zm-3.428.526c-.256.16-.526.3-.764.3l-.303-.093c-.353-.267-.178-.702-.019-.915.12-.166.27-.247.441-.247l.38.14c.218.163.312.538.265.815zm2.477 1.94c-.243.329-.704.426-1.017.197-.29-.216-.38-.508-.304-.997.518-.336.897-.393 1.222-.152.15.112.238.252.263.41.026.171-.033.365-.164.542z" id="Fill-66"/><path d="M90.104 66.68c-1.25-.624-2.44-.255-3.04.944-.167.34-.237.668-.204.99-.449-.367-.856-.939-.501-1.641.177-.36.411-.599.7-.85l.243-.207-1.327-.951-.15.147c-.37.358-.661.76-.888 1.216-.358.717-.425 1.409-.202 2.076.392 1.165 1.577 1.957 2.502 2.417.805.406 1.494.6 2.094.6.916 0 1.605-.453 2.054-1.347.7-1.396.231-2.634-1.281-3.394zm-.064 2.723c-.115.237-.296.352-.553.352-.177 0-.38-.055-.59-.163-.355-.176-.597-.395-.665-.62a.518.518 0 0 1 .038-.411c.11-.216.286-.32.543-.32.196 0 .424.061.658.178.307.154.53.37.603.59l-.034.394z" id="Fill-67"/><path d="M92.661 59.413c-1.443-.43-2.605.22-3.014 1.603l-.085.352-.846-.269.737-2.475-1.442-.424-1.235 4.157 4 1.268-.003-.35a3.745 3.745 0 0 1 .159-1.124c.103-.344.473-1.195 1.245-.965.82.246.63 1.126.555 1.392-.143.486-.43.837-.669 1.126l-.231.281 1.683.554.102-.183a7.282 7.282 0 0 0 .652-1.492c.253-.84.22-1.615-.095-2.24-.296-.58-.831-1.01-1.513-1.211" id="Fill-68"/><path d="M13.763 49.804c0 20.004 16.312 36.271 36.367 36.271 20.054 0 36.367-16.267 36.367-36.271 0-19.995-16.313-36.264-36.367-36.264-20.055 0-36.367 16.27-36.367 36.264zM50.13 14.797c19.359 0 35.11 15.709 35.11 35.007 0 19.309-15.751 35.014-35.11 35.014-19.363 0-35.11-15.705-35.11-35.014 0-19.298 15.747-35.007 35.11-35.007z" id="Fill-69"/><path d="M50.13.207C22.704.207.39 22.457.39 49.81c0 27.344 22.314 49.598 49.74 49.598 27.428 0 49.74-22.254 49.74-49.598C99.87 22.457 77.557.207 50.13.207zm0 97.907c-26.71 0-48.439-21.668-48.439-48.304 0-26.635 21.728-48.307 48.44-48.307 26.71 0 48.44 21.672 48.44 48.307 0 26.636-21.73 48.304-48.44 48.304z" id="Fill-70"/></g></g></g></svg>