<svg width="973" height="1260" viewBox="0 0 973 1260" xmlns="http://www.w3.org/2000/svg"><title>spotlights</title><g id="Symbols" fill="none" fill-rule="evenodd"><g id="spotlights"><g id="Path-5-+-Path-2-+-Path-6-+-Path-2-Copy-+-Path-3-+-Path-4-Mask" transform="translate(-187 48)"><path id="Path-2" fill="#A80323" d="M297 1266.965l430.43-327.533L672 671z"/><path id="Path-2" fill="#CC0028" d="M296 1264.668l430.43-327.533 34.81-530.695z"/><path id="Path-2-Copy" fill="#F2C800" d="M511.82 1288.958L86.36 549 1 772.46z"/><path id="Path-2-Copy" fill="#FDD100" d="M511.528 1283.909L86.068 543.95.709 767.41z"/><path id="Path-3" fill="#8BB867" d="M677.516 1366.588L123 339.425 137.318 19z"/><path id="Path-3" fill="#9ECE78" d="M671.395 1347.84L116.879 320.676 131.197.251z"/><path id="Path-5" fill="#520A3D" d="M652.795 1353.372L84 668.88 115.233 485z"/><path id="Path-5" fill="#6F1053" d="M655.395 1352.491L86.6 668l31.233-183.88z"/><path id="Path-6" fill="#3EA2AB" transform="matrix(-1 0 0 1 1358.714 0)" d="M930.953 1329.645L427.76 734.957l173.859-62.121z"/><path id="Path-6" fill="#3EB6C2" transform="matrix(-1 0 0 1 1360.714 0)" d="M931.953 1324.81L428.76 730.12l27.953-340.287z"/><path id="Path-4" fill="#237FB1" d="M604 1334l323.918-566.641 163.384 20.14z"/><path d="M604 1330l448.534-774.177 38.768 227.676L604 1330z" id="Path-4" fill="#1E98DB"/></g></g></g></svg>