<svg xmlns="http://www.w3.org/2000/svg" width="26" height="27" viewBox="0 0 26 27"><g fill-rule="evenodd"><path d="M12.748 13.71c2.52 0 4.565-2.04 4.565-4.557a4.562 4.562 0 0 0-4.565-4.556 4.562 4.562 0 0 0-4.569 4.556 4.563 4.563 0 0 0 4.569 4.558zm0-7.587a3.037 3.037 0 0 1 3.036 3.03 3.038 3.038 0 0 1-6.075 0c0-1.67 1.364-3.03 3.039-3.03z"/><path d="M6.304 15.066l.142.153c.037.036.07.074.11.113l6.192 6.508 6.19-6.508c.007-.008.014-.017.022-.023l.11-.118.118-.125.005-.006a8.698 8.698 0 0 0 2.309-5.902c0-4.819-3.928-8.739-8.754-8.739-4.83 0-8.758 3.92-8.758 8.739 0 2.185.82 4.28 2.31 5.902l.004.006zm6.444-13.12c3.984 0 7.225 3.234 7.225 7.212a7.186 7.186 0 0 1-1.689 4.624l-.281.312c-.04.055-.098.108-.153.163l-5.102 5.367-5.106-5.367c-.056-.055-.113-.108-.152-.163l-.24-.312h-.042A7.184 7.184 0 0 1 5.52 9.158c0-3.978 3.242-7.212 7.228-7.212z"/><path d="M21.078 15.419a.764.764 0 1 0-.639 1.385c2.04.936 3.21 2.197 3.21 3.46 0 2.388-4.381 4.944-10.903 4.944-6.514 0-10.89-2.556-10.89-4.945 0-1.26 1.165-2.521 3.196-3.459a.762.762 0 0 0 .373-1.013.766.766 0 0 0-1.016-.372C1.777 16.635.326 18.355.326 20.263c0 3.63 5.455 6.472 12.42 6.472 6.971 0 12.433-2.842 12.433-6.472 0-1.91-1.456-3.633-4.1-4.844"/></g></svg>